<?xml version="1.0" encoding="utf-8"?>
<!-- Generator: Adobe Adobe Illustrator 24.2.0, SVG Export Plug-In . SVG Version: 6.00 Build 0)  -->
<svg version="1.1" id="Layer_1" xmlns="http://www.w3.org/2000/svg" xmlns:xlink="http://www.w3.org/1999/xlink" x="0px" y="0px"
	 viewBox="0 0 500 500" style="enable-background:new 0 0 500 500;" xml:space="preserve">
<style type="text/css">
	.st0{fill:#D4D4D4;}
</style>
<path class="st0" d="M453.78,250.77c7.89-16.04,13.82-33.82,12.85-51.93c-0.9-16.87-6.44-33.37-15.74-47.47
	c-18.34-27.82-46.77-44.99-76.08-59.33c-1.76-0.86-3.55-1.69-5.29-2.61c0,0-0.01-0.01-0.01-0.01c-0.11-0.11-0.18-0.16-0.21-0.11
	c-0.02-0.01-0.04-0.02-0.05-0.03c-0.86-2.2-1.77-4.39-2.76-6.53c-2.91-6.29-7.37-12.18-12.52-16.81
	c-12.24-11.02-27.15-16.61-43.41-18.1c-26.45-2.42-50.07,11.36-67.68,30.29c-11.8-19.78-38.62-30.24-60.89-25.7
	c-31.84,6.48-50.13,39.56-54.33,69.26c-0.41,2.87-0.79,5.74-1.11,8.61c-1.31,0.56-2.62,1.14-3.89,1.74
	c-3.01,1.42-5.91,3.06-8.69,4.89c-12.34,8.13-22.54,18.63-30.56,31.03c-15.51,23.99-19.87,53.34-14.11,81.07
	c4.5,21.66,15.48,41.07,30.19,57.19c-2.06,2.2-3.99,4.56-5.74,7.13c-8.52,12.49-8.56,28.14-5.73,42.4
	c4,20.17,13.57,40.33,25.92,56.71c26.11,34.62,66.76,57.71,111.13,52.22c19.5-2.41,38.26-9.05,53.74-20.84
	c26.5,10.6,58.13,5.35,84.06-6.06c14.6-6.42,29.04-16.31,39.35-28.56c13.09-15.56,17.76-33.97,15.48-54.08
	c-1.64-14.43-5.31-28.44-11.36-41.49C425.56,295.68,442.26,274.17,453.78,250.77z M134.43,127.13c-0.48,0.47-1.66,0.83-2.68,1.13
	C132.56,127.75,133.45,127.36,134.43,127.13z"/>
</svg>
