<?xml version="1.0" encoding="utf-8"?>
<!-- Generator: Adobe Adobe Illustrator 24.2.0, SVG Export Plug-In . SVG Version: 6.00 Build 0)  -->
<svg version="1.1" id="Layer_1" xmlns="http://www.w3.org/2000/svg" xmlns:xlink="http://www.w3.org/1999/xlink" x="0px" y="0px"
	 viewBox="0 0 306 378" style="enable-background:new 0 0 306 378;" xml:space="preserve">
<style type="text/css">
	.st0{clip-path:url(#SVGID_2_);}
	.st1{fill:#5477E3;}
	.st2{fill-rule:evenodd;clip-rule:evenodd;fill:#8613CD;}
	.st3{fill-rule:evenodd;clip-rule:evenodd;fill:#FDF9FE;}
	.st4{fill-rule:evenodd;clip-rule:evenodd;fill:#9916E9;}
	.st5{fill:#E6D400;}
	.st6{fill:#FFEB08;}
	.st7{fill:#DCCA00;}
	.st8{fill:#E9D502;}
	.st9{fill:#D0BE02;}
	.st10{fill:#0C0B00;}
	.st11{fill:#DECC00;}
	.st12{stroke:#000000;stroke-width:0.12;stroke-linecap:round;stroke-linejoin:round;}
	.st13{opacity:0.51;fill:#00E6FF;enable-background:new    ;}
	.st14{fill:#916F6F;fill-opacity:0.98;}
	.st15{fill:#FACC00;stroke:#5477E3;stroke-miterlimit:10;}
	.st16{fill:#FAF200;}
	.st17{fill:#D9FA00;}
	.st18{fill:#687F28;}
	.st19{fill:#3F9C34;}
	.st20{fill:#206115;}
	.st21{fill:#267519;}
	.st22{fill:#2D52C2;}
	.st23{fill:#9E03FF;}
</style>
<g>
	<defs>
		<rect id="SVGID_1_" width="305.6" height="377.7"/>
	</defs>
	<clipPath id="SVGID_2_">
		<use xlink:href="#SVGID_1_"  style="overflow:visible;"/>
	</clipPath>
	<g class="st0">
		<path class="st1" d="M266.7,104.6c-0.1,5.6-43.5,8.5-112.9,15.1c-24.6,2.4-57.6,5.2-84.9,14.4C60.4,137,52.3,140.4,46,145
			c-4,3.5-7.3,6-7.1,7.6c0-0.5,0.3,0.2,0.5,0c0.6,2.3,5,4.5,10.6,8.3c8.8,5,19.4,8.4,31.4,12.3c14.3,4.5,28.9,8.3,44.6,12.3
			c15.7,4,32.4,8.2,48.9,12.7l6.4,1.8c13.1,3.7,26.2,7.8,39.2,12.7c22.1,8.1,44.1,19.8,62.2,38.3c12.8,13.1,20.8,30.1,22.6,48.3
			c0.7,8.7-0.6,17.5-3.6,25.7c-3,8.2-7.7,15.7-13.9,22c-18.8,17.1-40.7,23.4-58.5,25.8c-34.7,5.9-69.5,5.1-95.3,4.1
			c-73.4-2.6-117.4-9.9-117.3-15.6s44.9-8.7,116.8-13.8c25.3-1.8,59.3-3.8,88.6-10.9c15.2-4.3,30.8-8.5,37.9-17.7
			c3.7-3.6,5.6-10.3,4.8-16c-0.4-7.4-5.4-15.4-12.1-22.6c-11.2-11.9-28.1-19.7-47.3-27.3c-11.4-4.3-23.3-7.9-35.8-11.4l-6.2-1.7
			c-16.1-4.5-32.2-8.6-48.3-13c-15.8-4.2-31.2-8.6-46.7-13.8c-12.6-4.2-25.8-9.2-38.6-16.7c-9-4.6-18.4-12.7-25.5-24.9
			c-2.7-5.3-4.2-11.1-4.5-17.1c-0.2-5.9,0.8-11.9,3.1-17.4c6-12,14.2-19.7,22-24.1C35.6,106.6,47,101.9,58.9,99
			c34.1-8.7,68.6-8.7,93.8-8.3C224.2,91.7,266.8,99,266.7,104.6L266.7,104.6z"/>
		<path class="st2" d="M134.9,65.3l-63.5-0.2l31.9-52.9L134.9,65.3z"/>
		<path class="st2" d="M103.1,8.1c-0.7,0-1.4,0.2-2.1,0.6c-0.6,0.4-1.2,0.9-1.5,1.5L67.6,63c-0.3,0.5-0.5,1-0.5,1.6
			c-0.1,0.6,0,1.1,0.1,1.6c0.1,0.5,0.4,1,0.7,1.5c0.3,0.4,0.8,0.8,1.3,1.1c0.7,0.4,1.4,0.6,2.2,0.6l63.5,0.2c0.6,0,1.1-0.1,1.6-0.3
			c0.5-0.2,1-0.5,1.4-0.9c0.4-0.4,0.7-0.9,1-1.4c0.2-0.5,0.3-1.1,0.4-1.6c0-0.7-0.2-1.5-0.6-2.1l-31.6-53.1c-0.4-0.7-1-1.2-1.7-1.6
			C104.7,8.1,103.9,8,103.1,8.1L103.1,8.1z M103.2,20.6l24.1,40.4l-48.5-0.1L103.2,20.6z"/>
		<path class="st3" d="M112.6,26.6l-18.7-0.1l9.4-17.1L112.6,26.6z"/>
		<path class="st3" d="M103.2,8.1c-0.2,0-0.4,0.1-0.6,0.2c-0.2,0.1-0.3,0.3-0.4,0.5L91.2,25.1c-2.6,3.8,4.1,3.2,0.7,8
			c7.8-2.3,11.3-9.4,16-1.6c-1.1-2.2,6.2-4.6,5.8-5.5l-9.3-17.1c-0.1-0.2-0.3-0.4-0.5-0.5C103.7,8.2,103.5,8.1,103.2,8.1z
			 M103.2,12.2l7.1,13.1H96L103.2,12.2z"/>
		<path class="st4" d="M157.4,66.2l-54.6-0.2l27.4-46.8L157.4,66.2z"/>
		<path class="st4" d="M130.1,15.5c-0.6,0-1.2,0.2-1.8,0.5c-0.5,0.3-1,0.8-1.3,1.3L99.5,64.2c-0.3,0.6-0.5,1.2-0.5,1.9
			c0,0.7,0.2,1.3,0.5,1.9c0.3,0.6,0.8,1,1.4,1.4c0.6,0.3,1.2,0.5,1.9,0.5l54.6,0.2c0.7,0,1.3-0.2,1.9-0.5c0.6-0.3,1-0.8,1.4-1.4
			c0.3-0.6,0.5-1.2,0.5-1.9c0-0.7-0.2-1.3-0.5-1.9l-27.2-47c-0.3-0.6-0.8-1.1-1.4-1.4C131.4,15.7,130.7,15.5,130.1,15.5L130.1,15.5z
			 M130.2,26.6l20.7,35.8l-41.7-0.1L130.2,26.6z"/>
		<path class="st3" d="M139.5,33.6h-18.7l9.4-17.1L139.5,33.6z"/>
		<path class="st3" d="M130.2,15.2c-0.2,0-0.4,0.1-0.6,0.2c-0.2,0.1-0.3,0.3-0.4,0.5l-10.9,16.3c-2.6,3.8,4.1,3.2,0.7,8
			c7.8-2.3,11.3-9.4,16-1.6c-1.1-2.2,6.3-4.6,5.8-5.5l-9.3-17.1c-0.1-0.2-0.3-0.4-0.5-0.5S130.4,15.2,130.2,15.2z M130.2,19.2
			l7.1,13.1l-14.2,0L130.2,19.2z"/>
		<path class="st5" d="M244.2,165.2c5.2,4.2,1.6,9.1-8.7,11.9c-10.4,2.8-24.9,2.8-35.2-0.1c-10.3-2.8-13.7-7.8-8.4-11.9l26,4.1
			L244.2,165.2z"/>
		<path class="st6" d="M242.2,160.6c4.9,3.8,1.5,8.2-8.1,10.7c-10.7,2.5-21.9,2.5-32.6-0.1c-9.5-2.5-12.7-6.9-7.8-10.7l24.2,3.7
			L242.2,160.6z"/>
		<path class="st7" d="M240,154.9c4.4,4,1.4,8.6-7.4,11.3c-9.7,2.6-19.9,2.6-29.6-0.1c-8.7-2.7-11.6-7.3-7-11.3l21.9,3.9L240,154.9z
			"/>
		<path class="st6" d="M238.7,150.1c4.2,3.6,1.3,7.9-6.9,10.3c-9.1,2.4-18.8,2.4-27.9-0.1c-8.2-2.4-10.9-6.7-6.6-10.3l20.7,3.5
			L238.7,150.1z"/>
		<path class="st7" d="M236.4,144.4c4.2,3.5,1.6,7.7-6.2,10.1c-7.8,2.3-18.6,2.1-25.8-0.5s-8.8-6.9-3.9-10.2l17.6,4.2L236.4,144.4z"
			/>
		<path class="st8" d="M218.2,149.9c10.3,0,18.7-3.1,18.7-6.9c0-3.8-8.4-6.9-18.7-6.9c-10.3,0-18.7,3.1-18.7,6.9
			C199.5,146.8,207.8,149.9,218.2,149.9z"/>
		<path class="st9" d="M218,144.7c8.7,0,15.8-2.9,15.8-6.5s-7.1-6.5-15.8-6.5c-8.7,0-15.8,2.9-15.8,6.5S209.3,144.7,218,144.7z"/>
		<path class="st10" d="M216.9,170.8h3.6c0.8,0,1.5,0.3,2.1,0.9c0.5,0.6,0.9,1.3,0.9,2.1v2.5c0,0.8-0.3,1.5-0.9,2.1
			c-0.5,0.6-1.3,0.9-2.1,0.9h-3.6c-0.8,0-1.5-0.3-2.1-0.9c-0.5-0.6-0.9-1.3-0.9-2.1v-2.5c0-0.8,0.3-1.5,0.9-2.1
			C215.4,171.2,216.2,170.8,216.9,170.8L216.9,170.8z"/>
		<path class="st11" d="M218.6,140.5c7.2,0,13.1-2.7,13.1-6c0-3.3-5.9-6-13.1-6s-13.1,2.7-13.1,6
			C205.6,137.8,211.4,140.5,218.6,140.5z"/>
		<path class="st12" d="M187.8,139.5c0.1-0.6-0.9-1.4-2.4-1.6s-2.7,0-2.8,0.7c-0.1,0.6,0.9,1.4,2.4,1.6
			C186.4,140.4,187.6,140.1,187.8,139.5z"/>
		<path class="st12" d="M193.1,144.9c0.1-0.6-0.9-1.4-2.4-1.6c-1.4-0.3-2.7,0-2.8,0.7c-0.1,0.6,0.9,1.4,2.4,1.6
			C191.7,145.9,193,145.6,193.1,144.9z"/>
		<path class="st12" d="M199.3,139.6c0.1-0.6-0.9-1.4-2.4-1.6c-1.4-0.3-2.7,0-2.8,0.7c-0.1,0.6,0.9,1.4,2.4,1.6
			C197.9,140.5,199.2,140.2,199.3,139.6z"/>
		<path class="st12" d="M201.4,145.6c0.1-0.6-0.9-1.4-2.4-1.6c-1.4-0.3-2.7,0-2.8,0.7c-0.1,0.6,0.9,1.4,2.4,1.6
			C200,146.6,201.2,146.3,201.4,145.6z"/>
		<path class="st12" d="M195.9,151.2c0.1-0.6-0.9-1.4-2.4-1.6c-1.4-0.3-2.7,0-2.8,0.7c-0.1,0.6,0.9,1.4,2.4,1.6
			C194.5,152.1,195.7,151.8,195.9,151.2z"/>
		<path class="st13" d="M187.9,141.3c-1.5,0.1-2.9-0.4-4-1.4c-0.8-0.8-0.5-1.8,0.6-2.2c1.4-0.4,3-0.3,4.3,0.3l-1.9,1.4L187.9,141.3z
			"/>
		<path class="st13" d="M193.3,146.7c-1.5,0.1-2.9-0.4-4-1.4c-0.8-0.8-0.5-1.8,0.6-2.2c1.4-0.4,3-0.3,4.3,0.3l-1.9,1.4L193.3,146.7z
			"/>
		<path class="st13" d="M199.6,141.4c-1.5,0.1-2.9-0.4-4-1.4c-0.8-0.9-0.5-1.8,0.6-2.2c1.4-0.4,3-0.3,4.3,0.3l-1.9,1.3L199.6,141.4z
			"/>
		<path class="st13" d="M196.1,153c-1.5,0.1-2.9-0.4-4-1.4c-0.8-0.8-0.5-1.8,0.6-2.2c1.4-0.4,3-0.3,4.3,0.3l-1.9,1.3L196.1,153z"/>
		<path class="st13" d="M201.6,147.3c-1.5,0.1-2.9-0.4-4-1.4c-0.8-0.8-0.5-1.8,0.6-2.2c1.4-0.4,3-0.3,4.4,0.3l-1.9,1.3L201.6,147.3z
			"/>
		<path class="st14" d="M70.6,311h-8.5v25.2h8.5V311z"/>
		<path class="st15" d="M204.6,219.5c-0.9,0.1-1.9-0.1-2.8-0.2c-0.9-1.8-2.4-3.3-4.3-4c-1.7-0.6-3.5-0.5-5.1,0.3
			c-1.5,0.8-2.6,2.4-1.4,3.9c1.1,1.4,3.4,1.5,5.1,1.6c1.1,0,2.2,0,3.3,0c0.2,0,0.6,0,0.8,0c0,0.1,0,0.1,0.1,0.2
			c0.5,0.4,0.5,1.1,0.7,1.7c0.1,0.6,0.3,1.3,0.7,1.9c0.2,0.4,1,0.7,1.4,0.2c0.9-1.2,1.2-2.8,2.3-3.9
			C205.7,220.5,205.4,219.4,204.6,219.5z"/>
		<path class="st16" d="M189.2,230.3c0.1-0.5,0.1-1.1,0.3-1.6c0.1-0.5-0.5-1.1-1.1-1.2c-1.6,0-3.1,0.3-4.4,0.7c-0.1,0-0.2,0.1-0.3,0
			c-0.1-0.1-0.2-0.3-0.4-0.3c-0.9-1.5-2.5-2.5-4.2-3.1c-1.7-0.6-4.2-0.7-4.9,0.8s1,3.3,2.5,4.2c1.8,1,4,1,5.9,0.7l0.2-0.1
			c0.2,0.3,0.4,0.7,0.7,1c0.5,1,1,2.1,1.5,3c0.4,0.7,1.4,0.7,2,0.3c1.1-0.7,1.7-1.8,2.1-2.9C189,231.4,189.2,230.8,189.2,230.3z"/>
		<path class="st17" d="M179.5,211.1c-1-0.1-2,0.1-3,0.4c-0.1,0-0.4,0.1-0.7,0.1c-0.6-1.8-2.6-3.4-4.5-3.8c-1.2-0.2-2.3,0-3.2,0.7
			c-0.9,0.6-1.3,1.7-1,2.7c0.6,1.8,3,2.8,4.8,2.9c0.9,0.1,1.7,0,2.6-0.2c0.3,0.4,0.4,0.9,0.6,1.3c0.3,0.9,0.3,1.8,0.7,2.7
			c0.3,0.7,1.2,1.1,1.7,0.5c0.9-0.9,1.3-1.8,1.9-2.9c0.4-0.7,1.2-1.2,1.4-2.1C181.4,212.3,180.6,211.2,179.5,211.1z"/>
		<path class="st18" d="M48.4,284h19.8c1,0,2,0.2,2.9,0.6c0.9,0.4,1.7,0.9,2.4,1.6c0.7,0.7,1.2,1.5,1.6,2.4c0.4,0.9,0.6,1.9,0.6,2.9
			v14.3c0,2-0.8,3.9-2.2,5.3c-1.4,1.4-3.3,2.2-5.3,2.2H48.4c-2,0-3.9-0.8-5.3-2.2c-1.4-1.4-2.2-3.3-2.2-5.3v-14.3c0-1,0.2-2,0.5-2.9
			c0.4-0.9,0.9-1.7,1.6-2.4c0.7-0.7,1.5-1.3,2.4-1.6C46.5,284.2,47.4,284,48.4,284z"/>
		<path class="st19" d="M55.8,290.6h19.8c1,0,2,0.2,2.9,0.6c0.9,0.4,1.7,0.9,2.4,1.6c0.7,0.7,1.2,1.5,1.6,2.4
			c0.4,0.9,0.6,1.9,0.5,2.9v14.3c0,1-0.2,2-0.5,2.9c-0.4,0.9-0.9,1.7-1.6,2.4c-0.7,0.7-1.5,1.3-2.4,1.6c-0.9,0.4-1.9,0.6-2.9,0.6
			H55.8c-1,0-2-0.2-2.9-0.6c-0.9-0.4-1.7-0.9-2.4-1.6c-0.7-0.7-1.2-1.5-1.6-2.4c-0.4-0.9-0.6-1.9-0.6-2.9v-14.3c0-1,0.2-2,0.6-2.9
			c0.4-0.9,0.9-1.7,1.6-2.4c0.7-0.7,1.5-1.3,2.4-1.6C53.9,290.8,54.9,290.6,55.8,290.6L55.8,290.6z"/>
		<path class="st20" d="M55.5,275h19.7c1,0,2,0.2,2.9,0.6c0.9,0.4,1.7,0.9,2.4,1.6c0.7,0.7,1.2,1.5,1.6,2.4c0.4,0.9,0.6,1.9,0.6,2.9
			v14.3c0,2-0.8,3.9-2.2,5.3c-1.4,1.4-3.3,2.2-5.3,2.2H55.5c-1,0-2-0.2-2.9-0.6c-0.9-0.4-1.7-0.9-2.4-1.6c-0.7-0.7-1.2-1.5-1.6-2.4
			c-0.4-0.9-0.6-1.9-0.6-2.9v-14.3c0-1,0.2-2,0.6-2.9c0.4-0.9,0.9-1.7,1.6-2.4c0.7-0.7,1.5-1.3,2.4-1.6
			C53.6,275.2,54.5,275,55.5,275L55.5,275z"/>
		<path class="st21" d="M64.4,284h19.8c1,0,2,0.2,2.9,0.6c0.9,0.4,1.7,0.9,2.4,1.6c0.7,0.7,1.2,1.5,1.6,2.4c0.4,0.9,0.6,1.9,0.6,2.9
			v14.3c0,1-0.2,2-0.6,2.9c-0.4,0.9-0.9,1.7-1.6,2.4c-0.7,0.7-1.5,1.3-2.4,1.6c-0.9,0.4-1.9,0.6-2.9,0.6H64.4c-1,0-2-0.2-2.9-0.6
			c-0.9-0.4-1.7-0.9-2.4-1.6c-0.7-0.7-1.2-1.5-1.6-2.4c-0.4-0.9-0.6-1.9-0.6-2.9v-14.3c0-1,0.2-2,0.5-2.9c0.4-0.9,0.9-1.7,1.6-2.4
			c0.7-0.7,1.5-1.3,2.4-1.6C62.5,284.2,63.5,284,64.4,284z"/>
		<path class="st14" d="M103.2,311h-8.5v25.2h8.5V311z"/>
		<path class="st18" d="M81,284h19.7c1,0,2,0.2,2.9,0.6c0.9,0.4,1.7,0.9,2.4,1.6c0.7,0.7,1.2,1.5,1.6,2.4c0.4,0.9,0.6,1.9,0.5,2.9
			v14.3c0,2-0.8,3.9-2.2,5.3c-1.4,1.4-3.3,2.2-5.3,2.2H81c-1,0-2-0.2-2.9-0.6c-0.9-0.4-1.7-0.9-2.4-1.6c-0.7-0.7-1.2-1.5-1.6-2.4
			c-0.4-0.9-0.6-1.9-0.6-2.9v-14.3c0-1,0.2-2,0.5-2.9c0.4-0.9,0.9-1.7,1.6-2.4s1.5-1.3,2.4-1.6C79.1,284.2,80,284,81,284L81,284z"/>
		<path class="st19" d="M88.4,290.6h19.8c1,0,2,0.2,2.9,0.6s1.7,0.9,2.4,1.6c0.7,0.7,1.2,1.5,1.6,2.4c0.4,0.9,0.6,1.9,0.6,2.9v14.3
			c0,1-0.2,2-0.6,2.9c-0.4,0.9-0.9,1.7-1.6,2.4c-0.7,0.7-1.5,1.3-2.4,1.6s-1.9,0.6-2.9,0.6H88.4c-1,0-2-0.2-2.9-0.6
			c-0.9-0.4-1.7-0.9-2.4-1.6c-0.7-0.7-1.2-1.5-1.6-2.4c-0.4-0.9-0.6-1.9-0.5-2.9v-14.3c0-1,0.2-2,0.5-2.9c0.4-0.9,0.9-1.7,1.6-2.4
			c0.7-0.7,1.5-1.3,2.4-1.6C86.5,290.8,87.5,290.6,88.4,290.6z"/>
		<path class="st20" d="M88.1,275h19.7c1,0,2,0.2,2.9,0.6s1.7,0.9,2.4,1.6c0.7,0.7,1.2,1.5,1.6,2.4c0.4,0.9,0.6,1.9,0.6,2.9v14.3
			c0,1-0.2,2-0.6,2.9c-0.4,0.9-0.9,1.7-1.6,2.4c-0.7,0.7-1.5,1.3-2.4,1.6c-0.9,0.4-1.9,0.6-2.9,0.6H88.1c-2,0-3.9-0.8-5.3-2.2
			c-1.4-1.4-2.2-3.3-2.2-5.3v-14.3c0-1,0.2-2,0.6-2.9c0.4-0.9,0.9-1.7,1.6-2.4c0.7-0.7,1.5-1.3,2.4-1.6
			C86.2,275.2,87.1,275,88.1,275L88.1,275z"/>
		<path class="st21" d="M97,284h19.7c1,0,2,0.2,2.9,0.6s1.7,0.9,2.4,1.6c0.7,0.7,1.2,1.5,1.6,2.4c0.4,0.9,0.6,1.9,0.5,2.9v14.3
			c0,1-0.2,2-0.5,2.9c-0.4,0.9-0.9,1.7-1.6,2.4c-0.7,0.7-1.5,1.3-2.4,1.6s-1.9,0.6-2.9,0.6H97c-1,0-2-0.2-2.9-0.6
			c-0.9-0.4-1.7-0.9-2.4-1.6c-0.7-0.7-1.2-1.5-1.6-2.4c-0.4-0.9-0.6-1.9-0.6-2.9v-14.3c0-1,0.2-2,0.5-2.9c0.4-0.9,0.9-1.7,1.6-2.4
			c0.7-0.7,1.5-1.3,2.4-1.6C95.1,284.2,96.1,284,97,284L97,284z"/>
	</g>
</g>
<path class="st22" d="M210.3,243.1c-9.6,1.4-19-1.3-27.8-5c-4.6-1.9-9.1-3.9-13.5-6.3c-4-2.1-7.9-4.6-12.1-6.4
	c-4.4-1.9-9.5-2.7-14.1-0.9c-0.9,0.4-0.5,1.9,0.4,1.5c9.1-3.6,18.3,3.5,25.9,7.4c8.3,4.3,17,8.3,26.2,10.3
	c5.1,1.1,10.3,1.6,15.4,0.7C211.6,244.3,211.2,243,210.3,243.1z"/>
<path class="st22" d="M232.9,235.7c-5.4,1.4-10.2-1.7-14.9-3.9c-4.5-2.2-9.4-3.2-14.5-3.1c-1,0-1,1.5,0,1.5c5.7-0.1,10.7,1.4,15.7,4
	c4.3,2.2,9.1,4.5,14,3C234.2,236.8,233.8,235.5,232.9,235.7z"/>
<path class="st22" d="M162.2,213.8c-2.7-0.5-5.5-1-8.2-1.9c-2.8-1-5.2-2.6-7.7-4.2c-3.8-2.5-8.9-4.5-12.9-1.3
	c-0.8,0.6,0.3,1.7,1.1,1.1c4.2-3.5,9.7,0.6,13.3,2.9c4.3,2.8,9,3.9,14,4.7C162.6,215.2,163,214,162.2,213.8z"/>
<path class="st23" d="M179.8-28c-0.4,0-0.4,0.6,0,0.6C180.2-27.4,180.2-28,179.8-28z"/>
</svg>
