<?xml version="1.0" encoding="utf-8"?>
<!-- Generator: Adobe Adobe Illustrator 24.2.0, SVG Export Plug-In . SVG Version: 6.00 Build 0)  -->
<svg version="1.1" id="Layer_1" xmlns="http://www.w3.org/2000/svg" xmlns:xlink="http://www.w3.org/1999/xlink" x="0px" y="0px"
	 viewBox="0 0 100 100" style="enable-background:new 0 0 100 100;" xml:space="preserve">
<style type="text/css">
	.st0{fill:#99F7A4;}
	.st1{fill:#2480AD;}
</style>
<g>
	<path class="st0" d="M70.29,81.66L89.07,22.2c1.34-10.82-0.52-16.88-8.34-16.88l-55.78,0c-7.82,0-9.66,6.01-8.34,16.88l19.76,58.77
		C43.14,92.72,66.39,88.42,70.29,81.66z"/>
	<g>
		<path class="st1" d="M47.2,30.34c-0.43-0.22-0.84-0.13-1.23,0.09c-2.18,0.16-4.35,0.89-6.41,1.74c-0.87,0.36-1.53,1.52-1.23,2.68
			c0.27,1.05,1.23,1.94,2.16,1.52c0.56-0.25,1.14-0.45,1.71-0.67c-0.3,0.31-0.6,0.61-0.89,0.92c-0.91,0.98-1.78,2-2.65,3.02
			c-0.93,1.09-1.86,2.18-2.78,3.28c-0.81,0.97-1.74,1.91-2.28,3.16c-0.63,1.43-0.71,3.14,0.04,4.52c0.67,1.24,1.8,1.85,2.96,2.08
			c2.51,0.5,5.1,0.33,7.6-0.23c0.85-0.19,1.33-1.47,1.12-2.44c-0.25-1.12-1.11-1.57-1.97-1.39c-1.86,0.4-3.73,0.33-5.59-0.1
			c-0.18-0.04-0.37-0.09-0.55-0.14c-0.05-0.02-0.34-0.13-0.42-0.15c0.03-0.06,0.06-0.13,0.09-0.19c0.08-0.16,0.43-0.64,0.68-0.94
			c1.52-1.76,3.09-3.46,4.62-5.21c0.77-0.87,1.52-1.76,2.24-2.69c0.06-0.07,0.12-0.15,0.18-0.22c0.13,1.47,1.83,2.02,2.44,0.64
			c0.99-2.24,1.17-4.97,1.15-7.49C48.18,31.35,47.79,30.65,47.2,30.34z"/>
		<path class="st1" d="M66.46,29.86c-0.65-0.18-1.52,0.1-1.82,0.92c-0.02,0.05-0.02,0.1-0.04,0.15c-0.48-1.1-0.98-2.19-1.51-3.25
			c-1.09-2.23-2.25-4.57-3.96-6.15c-1.65-1.51-3.75-1.71-5.55-0.48c-1.67,1.14-2.82,3.19-3.79,5.17c-0.92,1.89,1.45,3.6,2.38,1.72
			c0.7-1.42,1.55-3.17,2.82-3.91c1.16-0.68,2.15,0.18,2.92,1.29c1.07,1.54,1.86,3.52,2.65,5.3c0.58,1.3,1.09,2.63,1.6,3.97
			c-0.74-0.62-1.81-0.64-2.43,0.21c-0.7,0.95-0.75,2.41,0,3.35c0.74,0.92,1.54,1.74,2.38,2.52c0.74,0.68,1.55,1.21,2.34,1.79
			c1.28,0.94,2.94-0.26,2.95-2.1c0-1.44,0.04-2.87,0.1-4.31c0.06-1.42,0.2-2.85,0.15-4.27C67.62,30.94,67.17,30.06,66.46,29.86z"/>
		<path class="st1" d="M70.06,44.57c-1.74-1.57-3.45,2.05-1.7,3.6c0.28,0.25,0.52,0.71,0.81,0.91c0.06,0.04,0.07,0.07,0.09,0.1
			c-0.62,0.5-1.57,0.63-2.26,0.68c-1.76,0.13-3.5-0.38-5.22-0.73c-1.86-0.38-3.75-0.59-5.63-0.66c0.44-0.51,0.67-1.35,0.49-2.02
			c-0.29-1.11-1.08-1.58-1.97-1.39c-1.17,0.25-2.34,0.58-3.48,1c-1.15,0.42-2.25,0.98-3.37,1.49c-0.46,0.21-0.8,0.53-1,1.1
			c-0.18,0.53-0.2,1.2,0.08,1.7c1.39,2.52,3.29,4.67,5.66,5.65c0.62,0.25,1.3-0.23,1.53-0.93c0.22-0.63,0.07-1.23-0.26-1.7
			c1.29-0.04,2.59-0.02,3.88,0.05c2.57,0.15,5.12,0.72,7.7,0.67c2.1-0.04,5.04-0.35,6.48-2.51C73.62,48.96,71.83,46.17,70.06,44.57z
			"/>
	</g>
</g>
</svg>
