<svg version="1.1" xmlns="http://www.w3.org/2000/svg" xmlns:xlink="http://www.w3.org/1999/xlink" class="story"
	 viewBox="0 0 412 473" style="enable-background:new 0 0 412 473;" xml:space="preserve">
<style type="text/css">
	.st0{clip-path:url(#SVGID_2_);}
	.st1{fill:#5477E3;}
	.st2{fill-rule:evenodd;clip-rule:evenodd;fill:#8613CD;}
	.st3{fill-rule:evenodd;clip-rule:evenodd;fill:#FDF9FE;}
	.st4{fill-rule:evenodd;clip-rule:evenodd;fill:#9916E9;}
	.st5{fill:#E6D400;}
	.st6{fill:#FFEB08;}
	.st7{fill:#DCCA00;}
	.st8{fill:#E9D502;}
	.st9{fill:#D0BE02;}
	.st10{fill:#0C0B00;}
	.st11{fill:#DECC00;}
	.st12{stroke:#000000;stroke-width:0.12;stroke-linecap:round;stroke-linejoin:round;}
	.st13{opacity:0.51;fill:#00E6FF;enable-background:new    ;}
	.st14{fill:#FACC00;}
	.st15{fill:#FAF200;}
	.st16{fill:#D9FA00;}
	.st17{fill:#3A66E8;}
	.st18{fill:#916F6F;fill-opacity:0.98;}
	.st19{fill:#687F28;}
	.st20{fill:#3F9C34;}
	.st21{fill:#206115;}
	.st22{fill:#267519;}
	.st23{display:none;}
</style>
<g id="Layer_1">
	<g>
		<defs>
			<rect id="SVGID_1_" x="59" y="27" width="305.6" height="377.7"/>
		</defs>
		<clipPath id="SVGID_2_">
			<use xlink:href="#SVGID_1_"  style="overflow:visible;"/>
		</clipPath>
		<g class="st0">
			<path class="river" d="M325.7,131.6c-0.1,5.6-43.5,8.5-112.9,15.1c-24.6,2.4-57.6,5.2-84.9,14.4c-8.5,2.9-16.7,6.3-22.9,10.9
				c-4,3.5-7.3,6-7.1,7.6c0-0.5,0.3,0.2,0.5,0c0.6,2.3,5,4.5,10.6,8.3c8.8,5,19.4,8.4,31.4,12.3c14.3,4.5,29,8.3,44.6,12.3
				c15.7,4,32.4,8.2,48.9,12.7l6.4,1.8c13.1,3.7,26.2,7.8,39.2,12.7c22.1,8.1,44.1,19.8,62.2,38.3c12.8,13.1,20.8,30.1,22.6,48.3
				c0.7,8.7-0.6,17.5-3.6,25.7c-3,8.2-7.7,15.7-13.9,22c-18.8,17.1-40.7,23.4-58.5,25.8c-34.7,5.9-69.5,5.1-95.3,4.1
				c-73.4-2.6-117.4-9.9-117.3-15.6s44.9-8.7,116.8-13.8c25.3-1.8,59.3-3.8,88.6-10.9c15.2-4.3,30.8-8.5,37.9-17.7
				c3.7-3.6,5.6-10.3,4.8-16c-0.4-7.4-5.4-15.4-12.1-22.6c-11.2-11.9-28.1-19.7-47.4-27.3c-11.4-4.3-23.3-7.9-35.8-11.4l-6.2-1.7
				c-16.1-4.5-32.2-8.6-48.3-13c-15.8-4.2-31.2-8.6-46.7-13.8c-12.6-4.2-25.8-9.2-38.6-16.7c-9-4.6-18.4-12.7-25.5-24.9
				c-2.7-5.3-4.2-11.1-4.5-17.1c-0.2-5.9,0.8-11.9,3.1-17.4c6-12,14.2-19.7,22-24.1c10.4-6.4,21.8-11.2,33.8-14.1
				c34.1-8.7,68.6-8.7,93.8-8.3C283.2,118.7,325.8,126,325.7,131.6L325.7,131.6z"/>
			<path class="st2" d="M193.9,92.3l-63.5-0.2l31.9-52.9L193.9,92.3z"/>
			<path class="st2" d="M162.1,35.1c-0.7,0-1.4,0.2-2.1,0.6c-0.6,0.4-1.2,0.9-1.5,1.5L126.6,90c-0.3,0.5-0.5,1-0.5,1.6
				c-0.1,0.6,0,1.1,0.1,1.6c0.1,0.5,0.4,1,0.7,1.5c0.3,0.4,0.8,0.8,1.3,1.1c0.7,0.4,1.4,0.6,2.2,0.6l63.5,0.2c0.6,0,1.1-0.1,1.6-0.3
				c0.5-0.2,1-0.5,1.4-0.9c0.4-0.4,0.7-0.9,1-1.4c0.2-0.5,0.3-1.1,0.4-1.6c0-0.7-0.2-1.5-0.6-2.1l-31.6-53.1c-0.4-0.7-1-1.2-1.7-1.6
				C163.7,35.1,162.9,35,162.1,35.1L162.1,35.1z M162.2,47.6l24.1,40.4l-48.5-0.1L162.2,47.6z"/>
			<path class="st3" d="M171.6,53.6l-18.7-0.1l9.4-17.1L171.6,53.6z"/>
			<path class="st3" d="M162.2,35.1c-0.2,0-0.4,0.1-0.6,0.2c-0.2,0.1-0.3,0.3-0.4,0.5l-10.9,16.3c-2.6,3.8,4.1,3.2,0.7,8
				c7.8-2.3,11.3-9.4,16-1.6c-1.1-2.2,6.2-4.6,5.8-5.5l-9.3-17.1c-0.1-0.2-0.3-0.4-0.5-0.5C162.7,35.2,162.5,35.1,162.2,35.1z
				 M162.2,39.2l7.1,13.1H155L162.2,39.2z"/>
			<path class="st4" d="M216.4,93.2l-54.6-0.2l27.4-46.8L216.4,93.2z"/>
			<path class="st4" d="M189.1,42.5c-0.6,0-1.2,0.2-1.8,0.5c-0.5,0.3-1,0.8-1.3,1.3l-27.4,46.8c-0.3,0.6-0.5,1.2-0.5,1.9
				s0.2,1.3,0.5,1.9c0.3,0.6,0.8,1,1.4,1.4c0.6,0.3,1.2,0.5,1.9,0.5l54.6,0.2c0.7,0,1.3-0.2,1.9-0.5c0.6-0.3,1-0.8,1.4-1.4
				c0.3-0.6,0.5-1.2,0.5-1.9c0-0.7-0.2-1.3-0.5-1.9l-27.2-47c-0.3-0.6-0.8-1.1-1.4-1.4C190.4,42.7,189.7,42.5,189.1,42.5L189.1,42.5
				z M189.2,53.6l20.7,35.9l-41.7-0.1L189.2,53.6z"/>
			<path class="st3" d="M198.5,60.6h-18.7l9.4-17.1L198.5,60.6z"/>
			<path class="st3" d="M189.2,42.2c-0.2,0-0.4,0.1-0.6,0.2c-0.2,0.1-0.3,0.3-0.4,0.5l-10.9,16.3c-2.6,3.8,4.1,3.2,0.7,8
				c7.8-2.3,11.3-9.4,16-1.6c-1.1-2.2,6.3-4.6,5.8-5.5l-9.3-17.1c-0.1-0.2-0.3-0.4-0.5-0.5C189.6,42.2,189.4,42.2,189.2,42.2z
				 M189.2,46.2l7.1,13.1l-14.2,0L189.2,46.2z"/>
			<path class="st5" d="M303.2,192.2c5.2,4.2,1.6,9.1-8.7,11.9c-10.4,2.8-24.9,2.8-35.2-0.1c-10.3-2.8-13.7-7.8-8.4-11.9l26,4.1
				L303.2,192.2z"/>
			<path class="st6" d="M301.2,187.6c4.9,3.8,1.5,8.2-8.1,10.7c-10.7,2.5-21.9,2.5-32.6-0.1c-9.5-2.5-12.7-6.9-7.8-10.7l24.2,3.7
				L301.2,187.6z"/>
			<path class="st7" d="M299,181.9c4.4,4,1.4,8.6-7.4,11.3c-9.7,2.6-19.9,2.6-29.6-0.1c-8.7-2.7-11.6-7.3-7-11.3l21.9,3.9L299,181.9
				z"/>
			<path class="st6" d="M297.7,177.1c4.2,3.6,1.3,7.9-6.9,10.3c-9.1,2.4-18.8,2.4-27.9-0.1c-8.2-2.4-10.9-6.7-6.6-10.3l20.7,3.5
				L297.7,177.1z"/>
			<path class="st7" d="M295.4,171.4c4.2,3.5,1.6,7.7-6.2,10.1c-7.8,2.3-18.6,2.1-25.8-0.5s-8.8-6.9-3.9-10.2l17.6,4.2L295.4,171.4z
				"/>
			<path class="st8" d="M277.2,176.9c10.3,0,18.7-3.1,18.7-6.9c0-3.8-8.4-6.9-18.7-6.9c-10.3,0-18.7,3.1-18.7,6.9
				C258.5,173.8,266.8,176.9,277.2,176.9z"/>
			<path class="st9" d="M277,171.7c8.7,0,15.8-2.9,15.8-6.5s-7.1-6.5-15.8-6.5c-8.7,0-15.8,2.9-15.8,6.5S268.3,171.7,277,171.7z"/>
			<path class="st10" d="M275.9,197.8h3.6c0.8,0,1.5,0.3,2.1,0.9c0.5,0.6,0.9,1.3,0.9,2.1v2.5c0,0.8-0.3,1.5-0.9,2.1
				c-0.5,0.6-1.3,0.9-2.1,0.9h-3.6c-0.8,0-1.5-0.3-2.1-0.9c-0.5-0.6-0.9-1.3-0.9-2.1v-2.5c0-0.8,0.3-1.5,0.9-2.1
				C274.4,198.2,275.2,197.8,275.9,197.8L275.9,197.8z"/>
			<path class="st11" d="M277.6,167.5c7.2,0,13.1-2.7,13.1-6c0-3.3-5.9-6-13.1-6s-13.1,2.7-13.1,6
				C264.6,164.8,270.4,167.5,277.6,167.5z"/>
			<path class="st12" d="M246.8,166.5c0.1-0.6-0.9-1.4-2.4-1.6s-2.7,0-2.8,0.7c-0.1,0.6,0.9,1.4,2.4,1.6
				C245.4,167.4,246.6,167.1,246.8,166.5z"/>
			<path class="st12" d="M252.1,171.9c0.1-0.6-0.9-1.4-2.4-1.6c-1.4-0.3-2.7,0-2.8,0.7c-0.1,0.6,0.9,1.4,2.4,1.6
				C250.7,172.9,252,172.6,252.1,171.9z"/>
			<path class="st12" d="M258.3,166.6c0.1-0.6-0.9-1.4-2.4-1.6c-1.4-0.3-2.7,0-2.8,0.7c-0.1,0.6,0.9,1.4,2.4,1.6
				C256.9,167.5,258.2,167.2,258.3,166.6z"/>
			<path class="st12" d="M260.4,172.6c0.1-0.6-0.9-1.4-2.4-1.6c-1.4-0.3-2.7,0-2.8,0.7c-0.1,0.6,0.9,1.4,2.4,1.6
				S260.2,173.3,260.4,172.6z"/>
			<path class="st12" d="M254.9,178.2c0.1-0.6-0.9-1.4-2.4-1.6c-1.4-0.3-2.7,0-2.8,0.7c-0.1,0.6,0.9,1.4,2.4,1.6
				C253.5,179.1,254.7,178.8,254.9,178.2z"/>
			<path class="st13" d="M246.9,168.3c-1.5,0.1-2.9-0.4-4-1.4c-0.8-0.8-0.5-1.8,0.6-2.2c1.4-0.4,3-0.3,4.3,0.3l-1.9,1.4L246.9,168.3
				z"/>
			<path class="st13" d="M252.3,173.7c-1.5,0.1-2.9-0.4-4-1.4c-0.8-0.8-0.5-1.8,0.6-2.2c1.4-0.4,3-0.3,4.3,0.3l-1.9,1.4L252.3,173.7
				z"/>
			<path class="st13" d="M258.6,168.4c-1.5,0.1-2.9-0.4-4-1.4c-0.8-0.9-0.5-1.8,0.6-2.2c1.4-0.4,3-0.3,4.3,0.3l-1.9,1.3L258.6,168.4
				z"/>
			<path class="st13" d="M255.1,180c-1.5,0.1-2.9-0.4-4-1.4c-0.8-0.8-0.5-1.8,0.6-2.2c1.4-0.4,3-0.3,4.3,0.3l-1.9,1.3L255.1,180z"/>
			<path class="st13" d="M260.6,174.3c-1.5,0.1-2.9-0.4-4-1.4c-0.8-0.8-0.5-1.8,0.6-2.2c1.4-0.4,3-0.3,4.4,0.3l-1.9,1.3L260.6,174.3
				z"/>
			<path class="st14" d="M254.7,247.5c-0.8,0.1-1.7-0.1-2.5-0.2c-0.8-1.8-2.1-3.3-3.8-4c-1.5-0.6-3.1-0.5-4.5,0.3
				c-1.3,0.8-2.3,2.4-1.2,3.9c1,1.4,3,1.5,4.5,1.6c1,0,1.9,0,2.9,0c0.2,0,0.5,0,0.7,0c0,0.1,0,0.1,0.1,0.2c0.4,0.4,0.4,1.1,0.6,1.7
				c0.1,0.6,0.3,1.3,0.6,1.9c0.2,0.4,0.9,0.7,1.2,0.2c0.8-1.2,1.1-2.8,2-3.9C255.7,248.5,255.4,247.4,254.7,247.5z"/>
			<path class="st15" d="M237.9,251.7c0-0.5-0.1-1-0.1-1.5c0-0.5-0.5-0.9-0.9-0.8c-1,0.4-1.9,1-2.7,1.7c-0.1,0-0.1,0.1-0.2,0.1
				c-0.1-0.1-0.2-0.2-0.3-0.2c-0.8-1.1-2-1.6-3.2-1.7c-1.2-0.1-2.8,0.4-3,1.9c-0.2,1.5,1.2,2.7,2.3,3.1c1.3,0.5,2.7-0.1,3.9-0.8
				c0,0,0.1-0.1,0.1-0.1c0.2,0.2,0.4,0.5,0.6,0.7c0.5,0.8,1,1.6,1.5,2.3c0.4,0.5,1,0.3,1.3-0.2c0.6-0.9,0.8-2,0.8-3.1
				C238,252.7,238,252.2,237.9,251.7z"/>
			<path class="st16" d="M247.4,261.5c-0.7-0.1-1.4,0.1-2.1,0.3c-0.1,0-0.3,0.1-0.5,0.1c-0.4-1.5-1.8-2.8-3.1-3.1
				c-0.8-0.2-1.6,0-2.2,0.6c-0.6,0.5-0.9,1.4-0.7,2.2c0.4,1.5,2.1,2.3,3.3,2.4c0.6,0.1,1.2,0,1.8-0.2c0.2,0.3,0.3,0.7,0.4,1.1
				c0.2,0.7,0.2,1.5,0.5,2.2c0.2,0.6,0.8,0.9,1.2,0.4c0.6-0.7,0.9-1.5,1.3-2.4c0.3-0.6,0.8-1,1-1.7
				C248.7,262.5,248.2,261.6,247.4,261.5z"/>
			<path class="st17" d="M255.6,255.8c-2.4-0.7-5-0.6-7.4-1.5c-1.3-0.5-2.5-1.3-3.7-2c-1.2-0.8-2.4-1.7-3.6-2.6
				c-2.5-2-5.5-4.3-8.9-4.3c-1.8-0.1-3.2,0.9-3.8,2.7c-0.2,0.5,0.6,0.7,0.8,0.2c1.3-3.5,5.8-1.5,8-0.2c1.5,0.9,2.8,2,4.2,3.1
				c2,1.6,4.2,3.3,6.5,4.2c2.4,0.9,5.2,1.1,7.8,1.4C256,256.8,256,256,255.6,255.8z"/>
			<path class="st17" d="M263.7,261.6c-3.8,1-7.8,0.9-11.5-0.6c-1.7-0.7-3.3-1.7-4.8-2.9c-1.1-0.9-2.3-1.9-3.6-2.4
				c-1.7-0.7-3.4-0.4-5,0.5c-0.4,0.2,0,0.9,0.4,0.6c1.5-0.8,3.1-1.1,4.7-0.3c1.4,0.7,2.5,1.8,3.7,2.7c2.9,2.2,6.3,3.6,10,3.8
				c2.1,0.1,4.3-0.2,6.3-0.8C264.3,262.2,264.1,261.5,263.7,261.6z"/>
			<path class="st18" d="M129.6,338h-8.5v25.2h8.5V338z"/>
			<path class="st19" d="M107.4,311h19.8c1,0,2,0.2,2.9,0.6c0.9,0.4,1.7,0.9,2.4,1.6c0.7,0.7,1.2,1.5,1.6,2.4
				c0.4,0.9,0.6,1.9,0.6,2.9v14.3c0,2-0.8,3.9-2.2,5.3c-1.4,1.4-3.3,2.2-5.3,2.2h-19.8c-2,0-3.9-0.8-5.3-2.2
				c-1.4-1.4-2.2-3.3-2.2-5.3v-14.3c0-1,0.2-2,0.5-2.9c0.4-0.9,0.9-1.7,1.6-2.4c0.7-0.7,1.5-1.3,2.4-1.6
				C105.5,311.2,106.4,311,107.4,311z"/>
			<path class="st20" d="M114.8,317.6h19.7c1,0,2,0.2,2.9,0.6c0.9,0.4,1.7,0.9,2.4,1.6c0.7,0.7,1.2,1.5,1.6,2.4
				c0.4,0.9,0.6,1.9,0.5,2.9v14.3c0,1-0.2,2-0.5,2.9c-0.4,0.9-0.9,1.7-1.6,2.4c-0.7,0.7-1.5,1.3-2.4,1.6c-0.9,0.4-1.9,0.6-2.9,0.6
				h-19.7c-1,0-2-0.2-2.9-0.6s-1.7-0.9-2.4-1.6c-0.7-0.7-1.2-1.5-1.6-2.4c-0.4-0.9-0.6-1.9-0.6-2.9v-14.3c0-1,0.2-2,0.6-2.9
				c0.4-0.9,0.9-1.7,1.6-2.4c0.7-0.7,1.5-1.3,2.4-1.6S113.9,317.6,114.8,317.6L114.8,317.6z"/>
			<path class="st21" d="M114.5,302h19.7c1,0,2,0.2,2.9,0.6c0.9,0.4,1.7,0.9,2.4,1.6c0.7,0.7,1.2,1.5,1.6,2.4
				c0.4,0.9,0.6,1.9,0.6,2.9v14.3c0,2-0.8,3.9-2.2,5.3c-1.4,1.4-3.3,2.2-5.3,2.2h-19.7c-1,0-2-0.2-2.9-0.6c-0.9-0.4-1.7-0.9-2.4-1.6
				c-0.7-0.7-1.2-1.5-1.6-2.4c-0.4-0.9-0.6-1.9-0.6-2.9v-14.3c0-1,0.2-2,0.6-2.9c0.4-0.9,0.9-1.7,1.6-2.4c0.7-0.7,1.5-1.3,2.4-1.6
				C112.6,302.2,113.5,302,114.5,302L114.5,302z"/>
			<path class="st22" d="M123.4,311h19.8c1,0,2,0.2,2.9,0.6c0.9,0.4,1.7,0.9,2.4,1.6c0.7,0.7,1.2,1.5,1.6,2.4
				c0.4,0.9,0.6,1.9,0.6,2.9v14.3c0,1-0.2,2-0.6,2.9c-0.4,0.9-0.9,1.7-1.6,2.4c-0.7,0.7-1.5,1.3-2.4,1.6c-0.9,0.4-1.9,0.6-2.9,0.6
				h-19.8c-1,0-2-0.2-2.9-0.6c-0.9-0.4-1.7-0.9-2.4-1.6c-0.7-0.7-1.2-1.5-1.6-2.4c-0.4-0.9-0.6-1.9-0.6-2.9v-14.3c0-1,0.2-2,0.5-2.9
				c0.4-0.9,0.9-1.7,1.6-2.4c0.7-0.7,1.5-1.3,2.4-1.6C121.5,311.2,122.5,311,123.4,311z"/>
			<path class="st18" d="M162.2,338h-8.5v25.2h8.5V338z"/>
			<path class="st19" d="M140,311h19.7c1,0,2,0.2,2.9,0.6c0.9,0.4,1.7,0.9,2.4,1.6c0.7,0.7,1.2,1.5,1.6,2.4c0.4,0.9,0.6,1.9,0.5,2.9
				v14.3c0,2-0.8,3.9-2.2,5.3c-1.4,1.4-3.3,2.2-5.3,2.2H140c-1,0-2-0.2-2.9-0.6s-1.7-0.9-2.4-1.6c-0.7-0.7-1.2-1.5-1.6-2.4
				c-0.4-0.9-0.6-1.9-0.6-2.9v-14.3c0-1,0.2-2,0.5-2.9c0.4-0.9,0.9-1.7,1.6-2.4s1.5-1.3,2.4-1.6C138.1,311.2,139,311,140,311
				L140,311z"/>
			<path class="st20" d="M147.4,317.6h19.8c1,0,2,0.2,2.9,0.6s1.7,0.9,2.4,1.6c0.7,0.7,1.2,1.5,1.6,2.4c0.4,0.9,0.6,1.9,0.6,2.9
				v14.3c0,1-0.2,2-0.6,2.9c-0.4,0.9-0.9,1.7-1.6,2.4c-0.7,0.7-1.5,1.3-2.4,1.6s-1.9,0.6-2.9,0.6h-19.8c-1,0-2-0.2-2.9-0.6
				c-0.9-0.4-1.7-0.9-2.4-1.6c-0.7-0.7-1.2-1.5-1.6-2.4c-0.4-0.9-0.6-1.9-0.5-2.9v-14.3c0-1,0.2-2,0.5-2.9c0.4-0.9,0.9-1.7,1.6-2.4
				c0.7-0.7,1.5-1.3,2.4-1.6C145.5,317.8,146.5,317.6,147.4,317.6z"/>
			<path class="st21" d="M147.1,302h19.7c1,0,2,0.2,2.9,0.6s1.7,0.9,2.4,1.6c0.7,0.7,1.2,1.5,1.6,2.4c0.4,0.9,0.6,1.9,0.6,2.9v14.3
				c0,1-0.2,2-0.6,2.9c-0.4,0.9-0.9,1.7-1.6,2.4c-0.7,0.7-1.5,1.3-2.4,1.6c-0.9,0.4-1.9,0.6-2.9,0.6h-19.7c-2,0-3.9-0.8-5.3-2.2
				c-1.4-1.4-2.2-3.3-2.2-5.3v-14.3c0-1,0.2-2,0.6-2.9c0.4-0.9,0.9-1.7,1.6-2.4c0.7-0.7,1.5-1.3,2.4-1.6
				C145.2,302.2,146.1,302,147.1,302L147.1,302z"/>
			<path class="st22" d="M156,311h19.7c1,0,2,0.2,2.9,0.6s1.7,0.9,2.4,1.6c0.7,0.7,1.2,1.5,1.6,2.4c0.4,0.9,0.6,1.9,0.5,2.9v14.3
				c0,1-0.2,2-0.6,2.9c-0.4,0.9-0.9,1.7-1.6,2.4c-0.7,0.7-1.5,1.3-2.4,1.6s-1.9,0.6-2.9,0.6H156c-1,0-2-0.2-2.9-0.6
				c-0.9-0.4-1.7-0.9-2.4-1.6c-0.7-0.7-1.2-1.5-1.6-2.4c-0.4-0.9-0.6-1.9-0.6-2.9v-14.3c0-1,0.2-2,0.5-2.9c0.4-0.9,0.9-1.7,1.6-2.4
				c0.7-0.7,1.5-1.3,2.4-1.6C154.1,311.2,155.1,311,156,311L156,311z"/>
		</g>
	</g>
</g>
<g id="Layer_2" class="st23">
</g>
</svg>
