<?xml version="1.0" encoding="iso-8859-1"?>
Icons made by <a href="https://www.flaticon.com/authors/freepik" title="Freepik">Freepik</a> from <a href="https://www.flaticon.com/" title="Flaticon"> www.flaticon.com</a>
<!-- Generator: Adobe Illustrator 19.0.0, SVG Export Plug-In . SVG Version: 6.00 Build 0)  -->
<svg version="1.1" id="Capa_1" xmlns="http://www.w3.org/2000/svg" xmlns:xlink="http://www.w3.org/1999/xlink" x="0px" y="0px"
	 viewBox="0 0 511.991 511.991" style="enable-background:new 0 0 511.991 511.991;" xml:space="preserve">
<path style="fill:#FF965A;" d="M121.749,265.316c-0.031,0.191,0.814,0.054-5.199-1.612c-1.021,0.974-47.808-21.26-49.368,87.022
	c-0.201,13.915-11.644,25.033-25.559,24.832c-16.239-0.234-28.071-15.587-24.063-31.405l0.065-0.228
	c19.553-75.269,47.014-89.354,47.9-90.69c33.387-25.216,64.111-0.488,64.283-0.436c3.457,2.225,4.455,6.832,2.229,10.288
	S125.206,267.541,121.749,265.316z"/>
<path style="fill:#965028;" d="M487.112,158.64l-57.117-47.9l4.868-45.236c0.209-1.941-0.817-3.807-2.568-4.67
	s-3.855-0.541-5.268,0.807L401.03,86.448l-0.063-0.053l-18.808,42.117l-61.746,92.594h-173.63c-54.039,0-84.286,61.344-53.3,104.203
	l11.057,72.544L82.227,486.03c-2.824,11.159,3.933,22.495,15.092,25.318c11.149,2.819,22.493-3.922,25.318-15.093l23.347-92.262
	c0.683-2.697,0.818-5.503,0.399-8.253l-6.635-43.536c0.35,0.037,0.704,0.064,1.056,0.096l13.879,47.31l-19.242,87.034
	c-2.485,11.24,4.611,22.365,15.852,24.851c11.255,2.488,22.369-4.632,24.85-15.852l20.398-92.262
	c0.759-3.43,0.638-6.996-0.352-10.367l-11.862-40.431c27.624,0,65.853,0,98.731,0l12.177,66.159l-6.411,70.518
	c-1.042,11.464,7.406,21.602,18.87,22.644c11.542,1.045,21.609-7.483,22.644-18.87l6.67-73.365c0.172-1.89,0.085-3.794-0.259-5.66
	l-11.306-61.426c0.229,0,0.46,0,0.686,0l20.645,53.526l-9.003,82.784c-1.245,11.443,7.022,21.729,18.466,22.974
	c11.424,1.244,21.728-7.008,22.974-18.467l9.551-87.816c0.36-3.306-0.077-6.651-1.273-9.754l-26.235-68.02l62.718-142.688
	l37.095,16.579c5.492,2.454,11.734,2.626,17.352,0.477c11.374-4.351,13.359-14.567,14.83-16.926
	C497.373,176.006,494.869,165.146,487.112,158.64z"/>
<path style="fill:#FA870A;" d="M240.275,281.134h-24.469c-29.858,0-54.062-24.204-54.062-54.062l0,0h132.593l0,0
	C294.337,256.929,270.133,281.134,240.275,281.134z"/>
<path style="fill:#C8A06E;" d="M337.771,488.892c-1.34,12.316,8.299,23.098,20.745,23.098c10.5-0.001,19.533-7.914,20.694-18.591
	L337.771,488.892z"/>
<path style="fill:#FFC305;" d="M288.892,236.699H159.115c-7.3,0-13.218-5.918-13.218-13.218l0,0c0-7.3,5.918-13.218,13.218-13.218
	h129.776c7.3,0,13.218,5.918,13.218,13.218l0,0C302.11,230.781,296.192,236.699,288.892,236.699z"/>
<g>
	<path style="fill:#C8A06E;" d="M288.824,489.259c-1.107,12.176,8.466,22.731,20.781,22.731
		c10.658-0.001,19.749-8.135,20.732-18.957L288.824,489.259z"/>
	<path style="fill:#C8A06E;" d="M135.441,486.644c-2.872,12.99,7.016,25.346,20.37,25.346c9.563-0.001,18.182-6.624,20.331-16.347
		L135.441,486.644z"/>
	<path style="fill:#C8A06E;" d="M82.227,486.03c-3.331,13.163,6.633,25.964,20.221,25.96c9.314,0,17.801-6.292,20.189-15.734
		L82.227,486.03z"/>
</g>
<path style="fill:#A56941;" d="M272.4,219.231l-27.195-10.377l31.274-81.906c4.909-12.857-1.534-27.258-14.39-32.167L220.576,78.93
	c-12.857-4.909-27.258,1.534-32.167,14.39l-30.248,79.221c-8.48,22.21,2.65,47.09,24.86,55.57l57.665,21.908l-24.014,80.502
	c-3.166,10.613,2.871,21.784,13.484,24.95c10.567,3.152,21.771-2.825,24.95-13.484l29.324-98.302
	C287.427,233.644,282.185,222.987,272.4,219.231z"/>
<path style="fill:#39AE96;" d="M158.16,172.541l30.248-79.221c4.909-12.856,19.311-19.299,32.167-14.39l41.513,15.851
	c12.856,4.909,19.299,19.311,14.39,32.167l-31.274,81.906h-84.432C160.663,208.485,150.469,192.684,158.16,172.541z"/>
<g>
	<circle style="fill:#FFB69E;" cx="265.216" cy="36.886" r="36.886"/>
	<path style="fill:#FFB69E;" d="M318.764,209.842l-65.1-14.836c-5.621-1.281-10.186-5.37-12.075-10.817l-23.842-68.721
		c-3.025-8.72,1.592-18.241,10.312-21.266c8.72-3.025,18.24,1.591,21.267,10.311l20.804,59.964l56.063,12.776
		c8.999,2.051,14.631,11.009,12.58,20.008C336.723,206.253,327.773,211.892,318.764,209.842z"/>
</g>
<path style="fill:#55C7A6;" d="M231.344,154.658l31.358-11.588l-13.377-38.557c-3.026-8.72-12.547-13.336-21.267-10.311
	c-8.72,3.025-13.337,12.546-10.312,21.266L231.344,154.658z"/>
<g>
</g>
<g>
</g>
<g>
</g>
<g>
</g>
<g>
</g>
<g>
</g>
<g>
</g>
<g>
</g>
<g>
</g>
<g>
</g>
<g>
</g>
<g>
</g>
<g>
</g>
<g>
</g>
<g>
</g>
</svg>
